# xmcd CD database file
#
# Track frame offsets:
#	150
#	2910
#	18985
#	36760
#	52681
#	71545
#	90359
#	107949
#	121699
#	138682
#	154125
#	172484
#	188510
#	202876
#	218902
#
# Disc length: 3220 seconds
#
# Revision: 3
# Processed by: cddbd v1.5.2PL0 Copyright (c) Steve Scherf et al.
# Submitted via: CDex 1.51
#
DISCID=c60c920f
DTITLE=PG - De Um Lado a Outro
DYEAR=2006
DGENRE=Gospel
TTITLE0=Intro
TTITLE1=A Batalha
TTITLE2=Trono de Deus 
TTITLE3=Entrega
TTITLE4=Aclame ao Senhor
TTITLE5=Resposta
TTITLE6=Vou te Escutar
TTITLE7=De um lado a Outro
TTITLE8=Reflexão 
TTITLE9=Minha Terra
TTITLE10=Meu Senhor
TTITLE11=Visão de Deus
TTITLE12=Promessas
TTITLE13=Deus disse Assim
TTITLE14=Temo certo
EXTD=YEAR: 2006
EXTT0=
EXTT1=
EXTT2=
EXTT3=
EXTT4=
EXTT5=
EXTT6=
EXTT7=
EXTT8=
EXTT9=
EXTT10=
EXTT11=
EXTT12=
EXTT13=
EXTT14=
PLAYORDER=
